<svg xmlns="http://www.w3.org/2000/svg" width="264" height="88" viewBox="0 0 264 88"><title>default-skin 2</title><path d="M67.002 59.5v3.768C60.695 64.107 57.818 69.018 57 73c2.22-2.83 5.564-5.098 10.002-5.098V71.5L73 65.585 67.002 59.5zM13 29v-5h2v3h3v2h-5zm0-14h5v2h-3v3h-2v-5zm18 0v5h-2v-3h-3v-2h5zm0 14h-5v-2h3v-3h2v5zm31-5v5h-2v-3h-3v-2h5zm0-4h-5v-2h3v-3h2v5zm8 0v-5h2v3h3v2h-5zm0 4h5v2h-3v3h-2v-5zM20.586 66l-5.656-5.656 1.414-1.414L22 64.586l5.656-5.656 1.414 1.414L23.414 66l5.656 5.656-1.414 1.414L22 67.414l-5.656 5.656-1.414-1.414L20.586 66zm91.199-.97L110 63.5l3-3.5h-10v-2h10l-3-3.5 1.785-1.468L117 59l-5.215 6.03zm40.43 0L154 63.5l-3-3.5h10v-2h-10l3-3.5-1.785-1.468L147 59l5.215 6.03zm8.742-36.487l-3.25-3.25-1.413 1.414 3.25 3.25 1.413-1.414zM152.5 16a5.5 5.5 0 1 0 0 11 5.5 5.5 0 1 0 0-11zm2.5 6h-5v-1h5v1zm-38.043 6.543l-1.414 1.414-3.25-3.25 1.414-1.414 3.25 3.25zM108.5 16a5.5 5.5 0 1 0 0 11 5.5 5.5 0 1 0 0-11zm2.5 6h-2.008l-.034 2.008-1-.017.034-1.991H106v-1h2.009l.034-2.009 1 .017-.034 1.992H111v1z"/></svg>