<?xml version="1.0" encoding="utf-8"?>
<!-- Generator: Adobe Illustrator 21.1.0, SVG Export Plug-In . SVG Version: 6.00 Build 0)  -->
<svg version="1.1" id="Layer_1" xmlns="http://www.w3.org/2000/svg" xmlns:xlink="http://www.w3.org/1999/xlink" x="0px" y="0px"
	 viewBox="0 0 806.6 672.5" style="enable-background:new 0 0 806.6 672.5;" xml:space="preserve">
<style type="text/css">
	.st0{fill:#512B1C;}
	.st1{fill:#663B26;}
	.st2{fill:#75492C;}
	.st3{fill:#35170A;}
	.st4{fill:#E88B99;}
	.st5{fill:#21607F;}
	.st6{fill:#2D190C;}
	.st7{fill:#347AA5;}
	.st8{fill:#2C6491;}
	.st9{fill:#5FAFD6;}
	.st10{fill:#EFCA11;}
	.st11{fill:#DB9B0E;}
	.st12{fill:#FFD93B;}
</style>
<g>
	<path class="st0" d="M528,480.8c78,88,24,165,64,188s34-70,34-110s-28-46-28-46c2-12-6-66-6-66C588,420.8,450,392.8,528,480.8z"/>
	<path class="st0" d="M257,475.8l-52,78l-32,2l-24,65c0,0-57,35-91,42s-59-19-58-35s49-7,110-40s85-158,85-158L257,475.8z"/>
	<path class="st1" d="M570,297.8c15-16,23-13,48-13s16-30,16-30s30,3,41-24s-20-42-20-42s12-3,9-40s-42-39-42-39s-18-84-54-79
		s-5,19,18,107s-53,137-53,137S555,313.8,570,297.8z"/>
	<path class="st2" d="M314.3,327.1c16.4,30.4,111.7,13.7,141.7-24.3s97-44,130-14s42,55,44,78s20,48,35,52s35-40,52,25
		s139,103,67,111s-116-80-116-80c-34,14-97-22-97-22c-123,121-246,94-246,94c-9,31-46,54-89,41s-53-3-58,3s4,30-1,39s-22,7-22,7
		c-34,2-33-23-24-61s44-48,73-48s32-29,32-29c-77-49-73-149-73-149"/>
	<path class="st1" d="M340,340.8c0,0-179.7-66.8-95,39s191,7,213-43c8.8-20.1,14.6-49.5,14.6-49.5C422,350.8,340,340.8,340,340.8z"
		/>
	<polygon class="st3" points="272,297.8 254,321.8 298,350.8 320,328.8 	"/>
	<path class="st1" d="M277,176.8c4-60,41-106,65-105s58-81-49-71s-56,176-56,176S273,236.8,277,176.8z"/>
	<path class="st0" d="M320,210.8c45-45,84-9,95,9s33,25,47-13s-6-58-48-74s-107,48-107,48"/>
	<path class="st4" d="M256,317.8c11-4,37,18,53,30s24,55,3,56s-16-22-18-32s-18-17-18-17C246,352.8,245,321.8,256,317.8z"/>
	<polygon class="st5" points="160,321.3 160,309.8 152,313.8 	"/>
	<path class="st2" d="M238,341.8c24,34,47,18,47,18c-9-4-27-23-21-42s47,19,70,29s42-7,58-29s-32-45-42-58s1-41,0-48
		s-32.8-71.3-118-46c-101,30-73,154-73,154C175,346.8,238,341.8,238,341.8z"/>
	<path class="st6" d="M395.1,293c7.6,2.6,9.8,11.8,5.3,18.7c-4.5,6.9-14-4.8-14-4.8C378.8,295.8,387.5,290.4,395.1,293z"/>
	<path class="st7" d="M238.6,340.8c-49.8,2-88.2-26-88.2-26c-2,11,5.7,35,5.7,35c57.9,35,94.9,7,94.9,7L238.6,340.8z"/>
	<polyline class="st1" points="227.2,345.5 227,320.8 239,340.8 	"/>
	<path class="st8" d="M251,356.8l-10-13l-37.6-2.7l11.6,26.7C237,367.8,251,356.8,251,356.8z"/>
	<path class="st9" d="M150.3,314.8c30.6,33,90.6,29.2,90.6,29.2l-2.4-3.2c-46.9,1-86.3-27-86.3-27L150.3,314.8z"/>
	<path class="st10" d="M147,376.9c5-23,22.5-20.8,22.5-20.8C192,379.8,142,399.9,147,376.9z"/>
	<path class="st11" d="M175,359.5c3.1,4.6,5,13.3-2,22.3s-20,7-20,7l-4.9-4.3c0,0,10.9,5.3,21.9-5.2c11-10.6,0-22.5,0-22.5
		L175,359.5z"/>
	<path class="st12" d="M155.4,385.8l-6-16.5c4.5-9.6,13.4-12.5,13.4-12.5l7.2,22C165,385.8,155.4,385.9,155.4,385.8z"/>
</g>
</svg>
