<svg xmlns="http://www.w3.org/2000/svg" width="724.229" height="724.229"><path d="M229.125 205.363l47.531-44.767c0 .001-75.55-38.795-47.531 44.767zm279.307 0L460.9 160.597s75.55-38.796 47.532 44.766zM352.533 94.917c3.13-.274 6.337-.411 9.581-.411s6.451.145 9.581.411c9.733.846 18.697 2.963 25.475 6.093l14.067-30.44c-11.036-5.103-24.813-8.309-39.542-9.284-3.153-.206-6.352-.32-9.581-.32-3.229 0-6.42.114-9.581.32-14.729.975-28.506 4.181-39.542 9.284l14.066 30.44c6.779-3.13 15.743-5.247 25.476-6.093z"/><path d="M646.219 170.125c-14.028-33.175-34.112-62.961-59.687-88.535s-55.367-45.657-88.535-59.686C463.642 7.365 427.162 0 389.562 0h-54.896c-37.6 0-74.08 7.365-108.428 21.896-33.175 14.028-62.961 34.111-88.535 59.686-25.574 25.574-45.657 55.36-59.686 88.535-14.539 34.355-21.903 70.836-21.903 108.436V671.32h33.533V402.532l25.308 16.579c3.876-5.917 9.398-11.233 15.704-15.933.023 9.673.541 18.827 1.546 27.479-12.482 11.744-23.922 27.356-29.725 47.691l32.246 9.207c1.714-5.993 4.219-11.432 7.235-16.351 4.158 10.456 9.459 19.679 15.895 27.622-7.197 15.979-12.505 35.109-13.579 57.607l33.495 1.592c.617-13.008 3.039-25.339 7.228-36.93 11.394 5.766 31.591 4.706 31.591 4.706 16.001 76.586 72.762 192.98 75.428 198.426l31.012-12.536c-15.323-47.447-16.839-127.095-15.59-183.346h109.35c1.249 56.251-.267 135.906-15.59 183.346l31.012 12.536c2.666-5.445 59.427-121.84 75.429-198.426 0 0 20.197 1.066 31.591-4.706 4.188 11.591 6.61 23.922 7.228 36.93l33.494-1.592c-1.073-22.498-6.382-41.629-13.579-57.607 6.436-7.943 11.736-17.166 15.895-27.623 3.016 4.92 5.529 10.351 7.235 16.352l32.246-9.207c-5.804-20.335-17.243-35.947-29.726-47.691 1.006-8.651 1.523-17.806 1.546-27.479 6.307 4.699 11.828 10.008 15.704 15.933l25.308-16.579v268.796h33.533V278.552c-.003-37.599-7.367-74.08-21.898-108.427zm-372.015 428.54c-11.949-31.47-22.52-63.959-26.549-89.061a782.034 782.034 0 0 0 11.591-6.497 706.431 706.431 0 0 0 15.75-9.269c-.343 7.494-.67 16.009-.937 25.293-.655 23.092-.891 50.929.145 79.534zm97.491-103.852h-63.128c.457-10.228.937-18.43 1.279-23.868 7.418-5.231 13.93-9.954 19.832-14.233 9.413-6.824 16.945-12.285 22.855-15.94.328-.206.647-.403.967-.594 6.298-3.801 8.385-3.983 8.583-3.991h.076c.198.008 2.284.19 8.575 3.991.32.19.64.388.968.594 5.909 3.655 13.441 9.116 22.854 15.94 5.896 4.279 12.414 9.002 19.832 14.233.343 5.438.823 13.641 1.279 23.868h-43.972zm78.337 103.852c1.028-28.605.792-56.442.145-79.525-.259-9.284-.594-17.807-.937-25.293a710.317 710.317 0 0 0 15.75 9.269c4.021 2.3 7.905 4.471 11.591 6.496-4.028 25.094-14.6 57.583-26.549 89.053zM634.581 396.82c-11.568-15.507-28.758-26.945-44.88-35.026-5.385-26.268-17.44-53.928-42.467-74.293a111.47 111.47 0 0 0-15.566-10.609c.183-3.473.35-7.616.532-12.65.16-4.349.298-8.69.396-12.354 9.924-6.252 24.379-18.194 31.324-37.584 7.091-19.816 4.387-41.705-8.027-65.055-14.211-26.716-31.651-42.497-51.842-46.891-23.259-5.072-40.25 7.266-42.108 8.69l20.373 26.641s-.084.068-.259.19c.274-.19 6.823-4.684 15.262-2.666 9.848 2.361 19.862 12.658 28.972 29.786 7.745 14.562 9.809 27.272 6.138 37.782-5.384 15.415-21.758 23.054-22.848 23.541l-10.251 4.09-.008 10.997c-.289 13.336-.837 28.979-1.355 36.884l-2.741 20.174-.145-.023c.159.023 16.389 2.65 32.223 16.093 9.954 8.446 19.732 31.332 19.397 31.255l-3.831 16.321-3.854 16.32c4.615 1.098 11.957 3.291 20.289 6.527.419 4.669.662 9.497.724 14.501.038 2.978.015 5.895-.054 8.758-10.357-5.354-17.996-7.806-18.88-8.08l-4.988 16.009-5.064 15.978c.229.076 11.63 3.823 24.5 12.368-2.079 8.508-4.874 16.078-8.354 22.643-16.358-20.898-32.931-31.149-34.249-31.949l-17.333 28.705-.076-.046c.121.076 12.338 7.715 24.66 23.259a136.63 136.63 0 0 1 3.305 4.364s-53.364-22.589-83.265-43.357c-10.022-6.961-18.514-13.122-26.001-18.553-18.772-13.617-30.936-22.429-42.542-25.597-3.184-.868-6.329-1.317-9.558-1.317h-.045c-3.229 0-6.367.449-9.558 1.317-11.607 3.168-23.762 11.979-42.542 25.597-7.494 5.431-15.986 11.592-26.001 18.553-29.9 20.769-83.265 43.357-83.265 43.357a125.978 125.978 0 0 1 3.305-4.364c12.323-15.544 24.539-23.183 24.661-23.259l-.076.046-17.334-28.705c-1.317.8-17.897 11.051-34.249 31.949-3.48-6.564-6.275-14.135-8.354-22.643 12.878-8.545 24.272-12.292 24.5-12.368l-5.049-15.985-4.996-16.009c-.883.274-8.522 2.727-18.88 8.08a239.528 239.528 0 0 1-.053-8.758c.061-5.004.305-9.832.724-14.501 8.332-3.236 15.666-5.43 20.289-6.526l-3.854-16.321-3.831-16.321c-.335.076 9.444-22.802 19.398-31.256 15.833-13.442 32.063-16.069 32.223-16.092l-.145.023-2.742-20.175c-.518-7.905-1.066-23.548-1.355-36.884l-.008-10.998-10.251-4.09c-1.082-.487-17.463-8.126-22.848-23.541-3.671-10.51-1.6-23.221 6.146-37.783 9.108-17.121 19.124-27.425 28.971-29.786 8.431-2.026 14.988 2.467 15.263 2.666a5.031 5.031 0 0 1-.259-.19l20.373-26.641c-1.858-1.424-18.849-13.762-42.108-8.689-20.189 4.402-37.63 20.174-51.841 46.891-12.422 23.35-15.125 45.238-8.027 65.055 6.938 19.397 21.401 31.339 31.324 37.584.107 3.663.236 8.004.396 12.353.183 5.034.351 9.177.533 12.65a111.419 111.419 0 0 0-15.567 10.609c-25.026 20.365-37.082 48.026-42.466 74.293-16.123 8.081-33.312 19.52-44.881 35.026V278.55c0-65.443 25.483-126.973 71.765-173.254 46.282-46.282 107.803-71.765 173.254-71.765h54.896c65.443 0 126.972 25.482 173.254 71.765 46.274 46.274 71.765 107.803 71.765 173.254v118.27z"/><path d="M405.608 229.559c-10.898-5.034-22.284-8.065-33.913-9.071a100.45 100.45 0 0 0-9.581-.373c-3.206-.03-6.405.099-9.581.373-11.637 1.005-23.015 4.044-33.914 9.071-16.747 7.73-30.067 16.9-39.595 27.242-3.686 4.006-14.912 16.191-9.124 29.39 3.062 6.977 9.847 11.233 18.248 11.478l64.393 4.958 9.581.739 9.581-.739 64.393-4.958c8.4-.251 15.186-4.501 18.247-11.478 5.788-13.198-5.438-25.391-9.124-29.39-9.535-10.342-22.863-19.512-39.611-27.242zm-33.913 40.189l-9.581.739-9.581-.739-34.622-2.666c4.288-2.696 9.108-5.285 14.447-7.753 6.527-3.016 13.29-4.981 20.174-5.879a67.056 67.056 0 0 1 9.581-.556 66.118 66.118 0 0 1 9.581.556c6.877.898 13.647 2.864 20.174 5.879 5.339 2.468 10.16 5.049 14.448 7.753l-34.621 2.666z"/></svg>