<?xml version="1.0" encoding="iso-8859-1"?>
<!-- Generator: Adobe Illustrator 16.0.0, SVG Export Plug-In . SVG Version: 6.00 Build 0)  -->
<!DOCTYPE svg PUBLIC "-//W3C//DTD SVG 1.1//EN" "http://www.w3.org/Graphics/SVG/1.1/DTD/svg11.dtd">
<svg version="1.1" id="Capa_1" xmlns="http://www.w3.org/2000/svg" xmlns:xlink="http://www.w3.org/1999/xlink" x="0px" y="0px"
	 width="612.001px" height="612.001px" viewBox="0 0 612.001 612.001" style="enable-background:new 0 0 612.001 612.001;"
	 xml:space="preserve">
<g>
	<g>
		<path d="M237.505,308.86l12.93,29.012c0.548-0.242,55.483-24.158,110.782,0.045l12.731-29.095
			C305.943,279.058,240.27,307.631,237.505,308.86z"/>
		<path d="M227.047,246.625l12.891,29.025c0.166-0.07,16.987-7.388,41.789-10.917c32.503-4.63,62.763-0.949,89.948,10.949
			l12.732-29.095C305.969,212.25,230.231,245.205,227.047,246.625z"/>
		<path d="M269.237,172.448c-35.56,5.249-59.362,15.739-60.355,16.185l12.93,29.012c0.834-0.37,84.177-36.655,168.036,0.044
			l12.731-29.095C362.535,171.06,316.428,165.48,269.237,172.448z"/>
		<path d="M609.109,155.729c7.058-32.343,1.096-65.496-16.789-93.349c-17.879-27.859-45.541-47.082-77.878-54.139
			s-65.495-1.096-93.354,16.79c-6.605,4.235-12.72,9.032-18.306,14.305c-53.311-14.152-104.552-13.012-139.424-9.235
			c-23.076,2.503-41.84,6.375-54.132,9.382C180.436,12.216,139.1-0.828,97.527,8.242C30.764,22.802-11.7,88.966,2.86,155.729
			c11.044,50.61,51.731,87.259,99.858,95.686c4.07,19.108,3.949,43.502,2.974,60.062c-26.891,7.434-48.305,28.19-56.648,54.688
			c-5.032,1.814-11.133,4.592-17.254,8.796c-13.388,9.185-29.356,26.84-29.356,58.775c0,21.197,8.35,40.248,23.675,54.433
			c-3.178,13.764-5.701,37.616,6.14,60.763c12.542,24.528,37.248,41.375,73.432,50.082c22.949,5.516,41.942,7.637,58.394,7.637
			c27.814,0,48.375-6.058,68.508-11.987c20.694-6.096,42.095-12.395,73.196-12.395c31.095,0,52.496,6.306,73.19,12.395
			c20.133,5.93,40.687,11.987,68.508,11.987c16.452,0,35.452-2.121,58.4-7.637c36.184-8.701,60.891-25.554,73.432-50.082
			c11.834-23.146,9.312-46.993,6.14-60.763c15.324-14.191,23.675-33.235,23.675-54.433c0-31.936-15.961-49.591-29.356-58.775
			c-6.72-4.611-13.407-7.51-18.693-9.3c-8.325-25.834-29.082-46.133-55.19-53.813c-0.993-16.542-1.146-41.121,2.943-60.356
			C557.136,243.205,598.039,206.492,609.109,155.729z M551.027,534.467c-8.133,15.897-25.82,27.223-52.585,33.662
			c-53.477,12.859-79.902,5.076-110.5-3.937c-21.79-6.414-46.49-13.694-82.165-13.694c-35.675,0-60.375,7.274-82.164,13.694
			c-30.598,9.013-57.024,16.796-110.501,3.937c-26.63-6.401-44.279-17.649-52.458-33.42c-5.095-9.815-5.885-20.248-5.242-28.72
			c4.484,1.701,9.165,3.103,14.006,4.217c6.668,13.707,21,35.521,46.362,40.961c0,0-5.14-21.98-5.414-38.247
			c4.312-0.332,8.681-0.854,13.102-1.548c7.739,13.158,21.248,29.254,42.534,33.814c0,0-6.019-25.745-5.375-42.133
			c4.859-0.809,9.452-1.28,13.796-1.465c6.248,13.509,20.707,37.101,47.228,42.782c0,0-4.375-18.706-5.268-34.382
			c9.542,4.86,14.561,10.153,15.337,11.013l4.49,5.567h131.552l7.356,0.28l4.72-5.841c0.765-0.848,5.676-6.025,14.987-10.834
			c-0.917,15.636-5.255,34.203-5.255,34.203c26.528-5.688,40.986-29.293,47.235-42.796c4.337,0.172,8.93,0.624,13.783,1.421
			c0.662,16.388-5.376,42.189-5.376,42.189c21.312-4.566,34.827-20.693,42.56-33.858c4.414,0.7,8.771,1.223,13.069,1.566
			c-0.268,16.273-5.413,38.273-5.413,38.273c25.312-5.427,39.636-27.159,46.317-40.872c4.987-1.134,9.796-2.561,14.407-4.306
			C556.798,514.372,556.021,524.703,551.027,534.467z M476.31,252.683c-1.758,10.891-2.688,23.267-2.771,37.056
			c-0.045,7.032,0.14,13.573,0.401,19.191c-19.516,1.854-40.917,9.688-58.833,21.752c-24.611,16.566-38.159,37.941-38.159,60.177
			h31.758c0-11.172,8.796-23.503,24.133-33.834c15.127-10.185,34.681-16.764,49.814-16.764c27.897,0,50.598,22.693,50.598,50.598
			l0.032,0.987c0.006,0.108,0.452,11.006-4.09,21.388l29.096,12.732c3.611-8.255,5.324-16.375,6.12-22.84
			c8.694,7.114,12.942,17.152,12.942,30.604c0,13.917-5.974,25.776-17.273,34.298c-19.445,14.669-51.426,17.605-85.552,7.854
			c-62.171-17.758-99.647,7.058-113.189,18.911H250.212c-13.535-11.854-51.012-36.675-113.189-18.911
			c-34.12,9.752-66.107,6.815-85.546-7.854c-11.306-8.528-17.28-20.388-17.28-34.298c0-12.848,3.873-22.573,11.796-29.624
			c0.847,6.299,2.561,14.025,5.994,21.866l29.095-12.732c-4.414-10.089-4.114-20.604-4.083-21.433l0.025-0.943
			c0-27.897,22.694-50.598,50.598-50.598c15.133,0,34.687,6.58,49.814,16.765c15.337,10.324,24.139,22.655,24.139,33.833h31.757
			c0-22.241-13.554-43.61-38.158-60.177c-17.528-11.796-38.394-19.554-57.566-21.617c0.268-5.65,0.453-12.236,0.408-19.325
			c-0.089-13.776-1.013-26.139-2.764-37.018c5.019-0.465,10.063-1.229,15.108-2.331l-6.771-31.031
			c-49.648,10.828-98.858-20.751-109.692-70.406c-10.834-49.648,20.745-98.858,70.4-109.686
			c49.655-10.834,98.857,20.751,109.692,70.406l31.031-6.771c-2.815-12.904-7.567-24.898-13.866-35.751
			c10.057-2.019,22.426-4.083,36.464-5.573c28.897-3.07,69.999-4.172,113.38,5.172c-6.465,11.089-11.229,23.248-14.044,36.152
			l31.031,6.771c10.828-49.655,60.037-81.234,109.692-70.406c24.05,5.248,44.623,19.547,57.922,40.267s17.732,45.375,12.484,69.425
			c-5.249,24.05-19.548,44.623-40.268,57.922c-20.719,13.299-45.374,17.732-69.425,12.484l-6.771,31.031
			C466.526,251.466,471.431,252.217,476.31,252.683z"/>
		<path d="M121.921,74.495c-30.853,0-55.954,25.101-55.954,55.954s25.102,55.954,55.954,55.954
			c30.853,0,55.955-25.101,55.955-55.954S152.774,74.495,121.921,74.495z M121.921,154.653c-13.344,0-24.197-10.854-24.197-24.197
			s10.853-24.197,24.197-24.197s24.197,10.853,24.197,24.197C146.119,143.793,135.259,154.653,121.921,154.653z"/>
		<path d="M544.474,130.456c0-30.853-25.102-55.954-55.954-55.954s-55.954,25.102-55.954,55.954
			c0,30.853,25.102,55.954,55.954,55.954S544.474,161.309,544.474,130.456z M464.322,130.456c0-13.344,10.854-24.197,24.197-24.197
			s24.197,10.853,24.197,24.197s-10.854,24.197-24.197,24.197S464.322,143.793,464.322,130.456z"/>
		<path d="M118.463,362.381c-34.649,6.351-15.108,44.426-15.108,44.426l75.164-9.496
			C166.876,358.146,118.463,362.381,118.463,362.381z"/>
		<path d="M490.437,362.381c0,0-48.413-4.235-60.056,34.936l75.164,9.497C505.545,406.807,525.086,368.731,490.437,362.381z"/>
	</g>
</g>
<g>
</g>
<g>
</g>
<g>
</g>
<g>
</g>
<g>
</g>
<g>
</g>
<g>
</g>
<g>
</g>
<g>
</g>
<g>
</g>
<g>
</g>
<g>
</g>
<g>
</g>
<g>
</g>
<g>
</g>
</svg>
