<svg xmlns="http://www.w3.org/2000/svg" width="612.002" height="612.002"><path d="M4.13 243.03c7.581 12.395 22.25 15.205 35.625 15.205 2.65 0 5.239-.117 7.723-.283-15.63 37.437-24.086 77.505-24.086 115.231 0 49.899 12.265 86.368 37.498 111.489 36.777 36.617 95.508 43.644 165.099 44.783a81.244 81.244 0 0 0 5.825 2.429c21.331 7.944 49.486 9.018 74.219 9.018 24.734 0 52.888-1.073 74.219-9.018a79.29 79.29 0 0 0 5.818-2.429c69.591-1.14 128.322-8.172 165.099-44.789 25.233-25.122 37.498-61.591 37.498-111.489 0-37.727-8.449-77.789-24.08-115.225 15.015 1.004 34.22-.105 43.286-14.934 12.406-20.29-5.19-48.235-25.566-80.599-11.568-18.373-23.525-37.375-28.247-52.494-5.517-17.682-18.676-29.947-38.06-35.451-24.395-6.928-53.202-1.892-73.073 3.55-18.613 5.097-36.284 12.542-47.883 19.969-28.826-9.905-58.769-14.922-89.043-14.922-30.281 0-60.216 5.017-89.049 14.922-11.593-7.427-29.27-14.873-47.883-19.969-19.871-5.442-48.678-10.478-73.073-3.55-19.377 5.504-32.536 17.769-38.059 35.458-4.715 15.119-16.678 34.121-28.247 52.494C9.32 194.789-8.276 222.74 4.13 243.03zm99.804-140.618c13.806-3.92 34.755-2.601 57.468 3.624 20.746 5.683 37.695 13.954 43.723 19.187l6.471 5.621 12.216-4.48c26.946-9.584 53.831-14.244 82.189-14.244 28.352 0 55.236 4.659 82.183 14.244l12.222 4.48 6.472-5.621c6.028-5.233 22.978-13.504 43.724-19.187 22.718-6.225 43.661-7.544 57.467-3.624 13.012 3.692 16.66 10.996 18.269 16.167 5.843 18.737 18.829 39.372 31.391 59.323 7.704 12.241 14.982 23.803 19.852 33.738 4.919 10.034 5.399 14.533 5.368 16.05-1.497.678-6.489 2.219-19.278 1.079-6.484-.58-13.135-1.615-19.785-3.069l-.721-.161c-66.466-14.878-116.562-68.672-117.049-69.203l-10.7 9.806-10.705 9.806c1.824 1.991 37.115 40.043 90.016 63.754 11.07 4.961 22.903 9.294 35.372 12.536 19.076 38.571 29.535 81.271 29.535 120.945 0 41.782-9.467 71.521-28.949 90.916-24.716 24.61-65.715 32.771-115.626 35.372 1.732-4.808 2.657-9.627 3.045-14.207l.203.013c.13-2.102 2.774-52.223-32.308-116.883-7.631-14.059-11.106-27.261-10.423-39.451 7.229 5.836 16.672 9.27 26.965 9.27h.006a46.21 46.21 0 0 0 10.256-1.159c22.953-5.227 37.689-26.749 32.852-47.976-4.05-17.763-20.549-30.17-40.13-30.17-3.427 0-6.879.388-10.256 1.159-6.928 1.578-13.104 4.653-18.219 8.746l-.068-.093c-1.491 1.079-14.811 11.082-23.402 30.035-7.976 17.59-13.251 46.355 6.896 83.49a270.47 270.47 0 0 1 8.013 16c-18.743-12.062-40.32-18.552-62.447-18.552-22.01 0-43.477 6.422-62.146 18.36a266.764 266.764 0 0 1 7.908-15.803c20.148-37.141 14.872-65.898 6.903-83.49-8.592-18.952-21.911-28.956-23.402-30.034l-.068.092c-5.122-4.092-11.292-7.162-18.219-8.746a46.164 46.164 0 0 0-10.256-1.159c-19.581 0-36.086 12.407-40.129 30.169-4.833 21.227 9.904 42.744 32.851 47.977a46.215 46.215 0 0 0 10.256 1.158c10.299 0 19.748-3.439 26.977-9.275.685 12.185-2.798 25.387-10.435 39.458-24.111 44.438-30.404 82.016-31.938 101.85a73.781 73.781 0 0 0-.61 9.448c0 6.127.832 12.968 3.285 19.778-49.905-2.601-90.904-10.761-115.625-35.371-19.477-19.396-28.943-49.135-28.943-90.917 0-39.667 10.453-82.368 29.529-120.944 12.462-3.242 24.302-7.575 35.372-12.536 52.9-23.711 88.192-61.764 90.016-63.754l-10.693-9.806-10.712-9.818c-.499.542-50.595 54.33-117.061 69.215l-.025.006v-.006c-6.903 1.541-13.806 2.632-20.537 3.229-12.789 1.14-17.781-.407-19.279-1.079-.031-1.516.456-6.015 5.368-16.049 4.869-9.936 12.148-21.498 19.853-33.738 12.561-19.951 25.547-40.58 31.39-59.323 1.602-5.177 5.251-12.481 18.262-16.173zm202.092 409.459c-39.945 0-61.499-4.086-72.599-11.347-6.928-4.536-9.788-10.305-10.49-17.097-.025-.679-.129-4.253.29-10.151 2.028-14.047 10.478-28.925 23.482-40.888 16.574-15.255 37.64-23.662 59.317-23.662 21.676 0 42.743 8.401 59.316 23.662 15.002 13.806 23.957 31.488 23.957 47.304 0 8.425-2.508 15.488-10.675 20.832-11.1 7.261-32.653 11.347-72.598 11.347zm95.68-223.491c1.27-.29 2.546-.438 3.809-.438 5.85 0 10.817 3.193 11.822 7.581 1.257 5.516-3.778 11.569-10.99 13.215-1.263.29-2.545.432-3.809.432-5.849 0-10.816-3.187-11.821-7.582-1.257-5.516 3.778-11.568 10.989-13.208zm-180.162 13.208c-.999 4.395-5.972 7.582-11.821 7.582a17.5 17.5 0 0 1-3.809-.432c-7.211-1.646-12.247-7.692-10.989-13.215.999-4.395 5.972-7.581 11.821-7.581 1.257 0 2.54.148 3.809.438 7.211 1.64 12.246 7.692 10.989 13.208z"/><path d="M247.251 490.114s51.52 2.509 48.192-28.376c-3.328-30.879-54.065-21.757-48.192 28.376zm69.308-28.376c-3.328 30.879 48.191 28.376 48.191 28.376 5.868-50.133-44.869-59.255-48.191-28.376z"/></svg>