<svg xmlns="http://www.w3.org/2000/svg" width="678.117" height="678.117"><path d="M643.42 396.084c-4.465-33.75-18.365-69.437-41.323-106.069-37.783-60.289-58.656-110.547-75.433-150.93-18.119-43.625-32.43-79.029-58.926-102.572C439.73 11.62 401.283 0 339.186 0h-.388c-62.034 0-100.453 11.627-128.454 36.505-26.489 23.543-40.807 58.473-58.926 102.099-16.776 40.383-37.649 90.882-75.433 151.17-22.957 36.633-36.858 72.438-41.323 106.188-4.047 30.594-.438 59.957 10.723 87.16 32.903 80.18 121.998 120.789 165.383 131.398 4.612 1.971 30.247 14.262 30.247 47.342v16.254h197.784v-16.248c0-33.086 24.766-45.342 29.378-47.312 43.386-10.609 131.816-51.189 164.712-131.371 11.167-27.208 14.579-56.509 10.531-87.101zm-40.871 74.734C576.413 534.511 502.436 572.88 459.092 583.13l-.883.205-.854.303c-1.377.494-13.852 3.773-26.263 15.471-9.494 8.957-20.464 22.498-24.285 43.688H271.275c-3.822-21.189-14.792-34.73-24.285-43.682-12.404-11.697-24.878-15.674-26.263-16.168l-.855.043-.883-.037c-43.343-10.248-117.314-48.527-143.45-112.227-19.538-47.609-10.094-102.572 28.064-163.455 39.225-62.584 60.677-114.213 77.913-155.712 17.165-41.33 29.569-70.757 50.478-89.335 21.523-19.136 53.5-26.906 106.93-26.906h.254c53.416 0 85.394 7.784 106.916 26.913 20.909 18.577 33.312 48.231 50.478 89.561 17.235 41.5 38.688 93.043 77.913 155.635 38.159 60.882 47.595 115.782 28.064 163.391z"/><path d="M245.09 319.499c26.277 0 47.652-21.375 47.652-47.652s-21.375-47.651-47.652-47.651-47.651 21.375-47.651 47.651c-.001 26.277 21.374 47.652 47.651 47.652zm0-62.712c8.307 0 15.067 6.76 15.067 15.067s-6.76 15.067-15.067 15.067-15.067-6.76-15.067-15.067 6.76-15.067 15.067-15.067zm186.172 62.712c26.276 0 47.651-21.375 47.651-47.652 0-22.356-15.858-41.958-37.699-46.606a47.962 47.962 0 0 0-9.952-1.045c-26.277 0-47.652 21.375-47.652 47.651-.001 26.277 21.381 47.652 47.652 47.652zm0-62.712c1.073 0 2.14.113 3.164.332 6.895 1.469 11.896 7.664 11.896 14.735 0 8.307-6.76 15.067-15.067 15.067s-15.066-6.76-15.066-15.067c.012-8.307 6.765-15.067 15.073-15.067zm91.396 111.168c-5.191 0-10.002.467-12.884.742l-.275.029c-5.156.494-9.91.734-14.53.734-13.689 0-26.305-2.127-42.185-7.107-8.293-2.605-16.762-5.537-24.956-8.377-11.38-3.941-23.154-8.018-35.135-11.471-16.734-4.818-30.783-7.566-44.205-8.64a100.38 100.38 0 0 0-9.444-.29c-3.242-.049-6.449.049-9.444.29-13.428 1.074-27.471 3.822-44.205 8.64-11.987 3.447-23.755 7.521-35.135 11.471-8.187 2.84-16.656 5.771-24.949 8.377-15.879 4.98-28.495 7.107-42.185 7.107-4.62 0-9.374-.24-14.53-.734l-.275-.029c-2.875-.275-7.692-.742-12.884-.742-5.496 0-22.208 0-30.317 12.299-2.6 3.941-6.216 12.291-1.243 23.896 6.449 15.045 17.482 25.133 27.393 31.604-3.603 5.184-6.795 10.504-9.36 15.639-7.812 15.617-9.536 28.721-5.128 38.957 4.528 10.502 14.806 16.527 28.212 16.527 5.828 0 12.432-1.059 20.025-3.221-.007 3.045.29 6.111.982 9.154 2.5 11.027 9.508 19.85 20.259 25.516 6.718 3.539 13.916 5.332 21.389 5.332 12.361 0 23.677-4.648 36.788-10.029 18.048-7.41 40.51-16.643 74.614-16.643 34.104 0 56.566 9.225 74.621 16.643 13.11 5.381 24.426 10.029 36.78 10.029h.007c7.474 0 14.665-1.793 21.382-5.332 10.751-5.666 17.752-14.488 20.259-25.516.692-3.043.982-6.109.982-9.16 7.594 2.16 14.198 3.221 20.025 3.221 13.407 0 23.691-6.025 28.22-16.529 4.407-10.236 2.684-23.338-5.128-38.957-2.571-5.135-5.765-10.447-9.367-15.639 9.918-6.477 20.951-16.564 27.4-31.609 4.973-11.605 1.356-19.955-1.25-23.896-8.115-12.286-24.828-12.286-30.324-12.286zm-62.35 137.672c-.177.777-.509 2.219-3.666 3.885-2.07 1.096-3.984 1.576-6.188 1.576-5.926 0-14.078-3.348-24.405-7.586-19.608-8.053-46.465-19.08-86.996-19.08-40.539 0-67.388 11.027-86.997 19.08-10.327 4.238-18.479 7.586-24.405 7.586-2.211 0-4.125-.488-6.195-1.576-3.158-1.658-3.49-3.107-3.667-3.885-.749-3.242.509-8.166 2.55-13.047 15.915-4.441 32.507-8.328 49.608-11.344 26.072-4.613 47.956-7.967 69.959-7.967h1.109c22.78 0 46.345 4.293 67.133 7.967a521.916 521.916 0 0 1 49.602 11.281c2.056 4.881 3.306 9.868 2.558 13.11zm36.568-91.178l-26.149 6.979 18.789 19.877c6.237 6.598 12.178 14.736 16.303 22.322 2.451 4.514 3.814 8.004 4.55 10.482-2.875-.346-7.438-1.285-14.22-3.652a480.316 480.316 0 0 0-16.154-5.297c-15.731-4.861-32.126-9.07-49.037-12.588a580.966 580.966 0 0 0-17.136-3.291c-18.663-3.299-39.438-8.457-60.875-9.516-3.963-.197-7.933-1.816-11.931-1.816h-1.3c-4.726 0-9.416 1.682-14.113 1.936-19.46 1.053-39.013 4.705-61.341 8.646-5.764 1.018-11.479 2.494-17.136 3.674-16.911 3.51-33.306 7.91-49.037 12.771-5.467 1.688-10.857 3.545-16.154 5.396-6.781 2.365-11.345 3.355-14.219 3.701.728-2.48 2.098-5.947 4.542-10.461 4.125-7.588 10.065-15.711 16.303-22.314l19.016-19.814-26.376-7.035c-.897-.283-12.828-4.154-21.368-13.754 2.034.127 3.913.305 5.347.445l.283.029c6.202.594 11.966.883 17.638.883 16.967 0 32.98-2.656 51.939-8.604 8.752-2.748 17.447-5.758 25.86-8.674 11.486-3.979 22.329-7.736 33.482-10.949 14.586-4.197 26.595-5.998 37.791-6.895 2.062-.17 4.309.381 6.598.381h.55c2.282 0 4.535-.551 6.57-.389 11.195.898 23.211 2.982 37.798 7.184 11.153 3.207 21.996 6.824 33.481 10.801 8.413 2.91 17.108 5.855 25.86 8.604 18.959 5.947 34.979 8.568 51.946 8.568 5.673 0 11.443-.311 17.639-.904l.282-.035c1.441-.141 3.312-.324 5.348-.445-8.541 9.594-20.465 13.471-21.369 13.754z"/><path d="M289.387 398.33c-4.485 4.775-7.015 11.117-3.398 19.143 0 0 22.526.262 26.221-13.223 1.158-4.232.466-9.826-3.37-17.209 0 0-12.256 3.617-19.453 11.289zm79.862-11.289c-3.836 7.383-4.528 12.971-3.369 17.209 3.694 13.484 26.22 13.223 26.22 13.223 3.617-8.018 1.088-14.367-3.397-19.143-7.206-7.672-19.454-11.289-19.454-11.289z"/></svg>