<svg xmlns="http://www.w3.org/2000/svg" width="612" height="612"><path d="M190.265 267.928c6.585 0 13.011-1.426 19.113-4.241 21.481-9.915 31.475-34.187 22.277-54.107-6.377-13.812-20.367-22.393-36.518-22.393-6.585 0-13.011 1.426-19.113 4.241-21.481 9.915-31.475 34.187-22.283 54.107 6.383 13.813 20.373 22.393 36.524 22.393zm-2.295-50.618c2.295-1.059 4.773-1.616 7.167-1.616 4.902 0 8.984 2.234 10.643 5.832 2.564 5.557-1.261 13.018-8.348 16.286-2.295 1.059-4.773 1.616-7.167 1.616-4.902 0-8.984-2.234-10.643-5.833-2.558-5.557 1.261-13.011 8.348-16.285zm-29.162 147.07c0 6.903 5.765 12.668 12.668 12.668 6.904 0 12.668-5.759 12.668-12.668 0-6.903-5.759-12.669-12.668-12.669-6.903 0-12.668 5.759-12.668 12.669zm44.333 13.929c-6.903 0-12.668 5.759-12.668 12.669 0 6.903 5.759 12.668 12.668 12.668 6.903 0 12.668-5.759 12.668-12.668.001-6.904-5.765-12.669-12.668-12.669zm24.7-27.234c0-6.904-5.765-12.669-12.668-12.669s-12.668 5.759-12.668 12.669c0 6.903 5.759 12.668 12.668 12.668 6.91 0 12.668-5.759 12.668-12.668z"/><path d="M612 465.831c0-43.299-16.817-100.9-26.041-131.385-8.732-28.849-19.112-55.594-27.154-73.556 25.35-8.844 43.25-32.993 43.25-61.316 0-35.796-29.29-64.915-65.086-64.915a65.155 65.155 0 0 0-37.619 11.977c-16.004-27.932-39.585-51.916-69.021-70.086-36.641-22.625-80.497-33.874-124.31-33.709-43.807-.171-87.657 11.083-124.297 33.703-29.437 18.176-52.981 42.154-68.985 70.086-10.838-7.681-23.929-11.977-37.54-11.977-35.796 0-64.921 29.119-64.921 64.915 0 28.324 18.238 52.473 43.587 61.316-8.048 17.962-19.095 44.707-27.828 73.556C16.818 364.931 0 422.532 0 465.831v23.115l30.765-14.799c-1.432 18.158-.447 42.969 6.812 68.538l7.534 25.367 36.188-41.04c26.928 26.982 60.362 42.148 95.307 42.148h258.79c34.944 0 68.213-15.166 95.142-42.143l36.016 41.285 7.203-25.489c7.259-25.569 8.911-50.441 7.485-68.6L612 488.952v-23.121zm-37.57-254.604l-26.151 25.979a74.132 74.132 0 0 1-.036-3.066c.085-9.908 2.282-16.94 6.462-20.306 4.272-3.446 11.017-3.709 16.738-3.048 1.04.122 2.037.276 2.987.441zm-536.859 0a54.258 54.258 0 0 1 2.986-.44c5.722-.661 12.466-.398 16.738 3.048 4.18 3.372 6.377 10.404 6.463 20.306.006.992 0 2.014-.037 3.066l-26.15-25.98zm502.58 211.042l7.821 30.374c.073.293 6.034 24.419 3.396 54.4l-20.899-24.101-10.717 12.509c-23.103 28.158-53.061 43.109-84.357 43.109h-258.79c-31.298 0-61.261-14.951-84.358-43.108l-10.716-12.785-20.894 24.235c-2.638-29.982 3.323-54.04 3.397-54.327l7.821-30.337-39.223 19.743c3.917-35.521 14.927-75.79 22.038-99.279 13.403-44.29 27.412-77.277 32.363-84.058l16.652-22.791-11.444.055c.202-20.092-5.502-34.945-17.05-44.254-8.299-6.695-19.266-9.963-31.897-9.584 6.2-11.254 18.183-18.905 31.916-18.905 11.849 0 22.999 5.808 29.829 15.545l14.645 20.875 10.104-23.409c13.109-30.374 36.243-55.092 66.91-74.021C228.351 82.59 265.713 73.44 304.735 73.44h.557c.239 0 .471.006.71.006.238 0 .471-.006.71-.006h.557c39.021 0 76.378 9.149 108.049 28.703 30.661 18.929 53.801 44.321 66.91 74.695l10.104 23.072 14.646-21.041c6.83-9.73 17.98-15.624 29.829-15.624 13.733 0 25.716 7.601 31.916 18.861-12.632-.379-23.6 2.871-31.897 9.566-11.549 9.314-17.253 24.156-17.051 44.248l-11.444-.062 16.652 22.791c4.957 6.781 18.96 39.774 32.369 84.064 7.105 23.488 18.121 63.765 22.038 99.285l-39.239-19.729z"/><path d="M474.349 303.033l-12.717 6.432c6.053 11.958 9.118 24.872 9.118 38.385 0 46.959-38.2 85.159-85.159 85.159-26.519 0-51.065-12.037-67.339-33.035l-1.561-2.014c-.881-21.744-1.579-58.844 2.613-78.617l16.31-16.31 17.057-17.552c3.537-3.537 1.028-10.08-3.972-10.08h-85.398c-5 0-7.509 6.542-3.972 10.08l17.056 17.308 16.31 16.432c4.192 19.774 3.494 56.935 2.613 78.679l-1.561 2.045c-16.279 20.991-40.82 33.048-67.344 33.048-46.953 0-85.16-38.195-85.16-85.147 0-13.514 3.066-26.421 9.119-38.379l-12.717-6.432-12.717-6.432c-8.085 15.985-12.185 31.977-12.185 50 .006 62.663 50.998 112.4 113.667 112.4h.031v61.2H385.56v-61.2h.031c62.675 0 113.66-49.731 113.66-112.406 0-18.023-4.101-34.639-12.185-50.625l-12.717 7.061zM293.76 495.721h-36.72v-37.834c12.24-3.359 24.48-9.002 36.72-16.683v54.517zm61.2 0h-36.72v-54.517c12.24 7.681 24.479 13.323 36.72 16.683v37.834zm47.663-232.033c6.095 2.815 12.527 4.241 19.112 4.241 16.15 0 30.141-8.58 36.518-22.387 9.192-19.92-.801-44.192-22.276-54.107-6.096-2.815-12.527-4.241-19.112-4.241-16.151 0-30.142 8.58-36.519 22.393-9.199 19.914.796 44.186 22.277 54.101zm3.598-42.162c1.659-3.598 5.741-5.832 10.643-5.832 2.394 0 4.872.557 7.167 1.616 7.087 3.274 10.912 10.728 8.348 16.285-1.658 3.599-5.74 5.833-10.643 5.833-2.393 0-4.872-.557-7.167-1.616-7.093-3.274-10.912-10.734-8.348-16.286z"/><path d="M440.523 351.711c-6.903 0-12.668 5.759-12.668 12.669 0 6.903 5.759 12.668 12.668 12.668 6.903 0 12.669-5.759 12.669-12.668 0-6.91-5.765-12.669-12.669-12.669zm-31.665 51.935c6.903 0 12.669-5.759 12.669-12.668 0-6.903-5.766-12.669-12.669-12.669s-12.668 5.759-12.668 12.669c0 6.903 5.759 12.668 12.668 12.668zm.631-52.571c0-6.904-5.765-12.669-12.668-12.669s-12.669 5.759-12.669 12.669c0 6.903 5.766 12.668 12.669 12.668 6.909 0 12.668-5.759 12.668-12.668zM354.96 250.921v-30.6h-97.92v30.6H306z"/></svg>