<svg xmlns="http://www.w3.org/2000/svg" width="611.991" height="611.991"><path d="M611.328 311.299c-.926-17.563-4.759-54.006-20.124-93.084-12.5-31.78-30.064-58.724-52.204-80.08-27.514-26.532-61.996-44.3-102.5-52.82-14.343-16.674-31.774-25.117-51.955-25.117-10.485 0-20.099 2.189-28.288 4.245-17.432 4.372-44.987 6.265-50.01 6.581-5.029-.316-32.584-2.214-50.01-6.581-8.189-2.056-17.803-4.245-28.293-4.245-20.15 0-37.561 8.418-51.889 25.036-40.661 8.495-75.27 26.288-102.871 52.906-22.14 21.356-39.704 48.3-52.204 80.08-14.113 35.892-18.496 69.56-19.844 88.427A170.587 170.587 0 0 0 0 326.324c0 35.571 9.909 66.302 30.293 93.954 17.462 23.687 39.745 41.571 61.294 58.866 27.825 22.327 54.103 43.425 62.363 72.648l27.754-5.689c-.02-.163-.707-5.522-1.618-14.812 16.241 4.245 42.32 10.032 74.614 13.594 19.249 2.122 38.33 3.187 57.055 3.187 12.459 0 24.761-.474 36.849-1.415 29.077-2.271 56.979-7.298 83.262-14.974-.892 9.049-1.558 14.256-1.578 14.413l27.749 5.69c8.26-29.23 34.543-50.321 62.368-72.649 21.549-17.294 43.832-35.179 61.294-58.865 20.384-27.647 30.293-58.378 30.293-93.954a171.91 171.91 0 0 0-.664-15.019zm-92.417-153.07c7.272 6.973 13.986 14.673 20.129 23.056a319.678 319.678 0 0 0-4.184-3.568c-29.271-24.466-58.332-39.073-70.237-44.534a130.712 130.712 0 0 0-5.019-11.757c22.681 8.424 42.551 20.736 59.311 36.803zm-326.178-48.183c6.912-9.981 17.162-21.443 35.21-21.443 7.253 0 14.536 1.674 21.381 3.39 21.773 5.461 54.729 7.365 56.123 7.441l.799.046.799-.046c1.396-.076 34.35-1.98 56.123-7.441 6.84-1.715 14.129-3.39 21.381-3.39 18.048 0 28.298 11.457 35.21 21.443 21.306 30.777 25.616 47.165 25.616 97.441 0 4.408-1.43 5.359-2.377 5.99-1.573 1.048-5.502 2.794-14.185 2.845-.133 0-.249.005-.383.005h-.005c-13.004 0-31.234-3.894-51.201-10.831a308.685 308.685 0 0 1-11.4-4.224c-17.279-6.795-31.684-14.2-41.297-20.216-3.868-2.418-6.963-4.611-9.156-6.449l-9.115-7.629-9.115 7.629c-2.255 1.888-5.456 4.148-9.462 6.637-9.614 5.985-23.896 13.304-40.997 20.028a297.041 297.041 0 0 1-13.208 4.845c-19.259 6.55-36.783 10.21-49.395 10.21-.473 0-.921-.005-1.369-.015-8.001-.173-11.691-1.827-13.202-2.835-.947-.631-2.377-1.588-2.377-5.99-.009-50.276 4.297-66.664 25.602-97.441zm39.72 164.476c1.13 0 2.295-.036 3.456-.102 12.118-.697 20.827-1.873 29.255-3.013 11.345-1.532 22.058-2.982 40.595-2.982 18.536 0 29.25 1.451 40.595 2.982 8.424 1.14 17.138 2.316 29.256 3.013 1.159.066 2.32.102 3.45.102h.006c16.326 0 27.041-6.739 33.688-14.852 4.453 12.276 8.306 25.865 11.538 40.671-24.389 7.166-50.346 11.878-77.469 14.027-28.345 2.239-58.006 1.715-88.167-1.568-30.568-3.329-55.512-8.855-70.858-12.841 3.181-14.495 6.958-27.825 11.309-39.892 6.666 7.935 17.288 14.455 33.346 14.455zM219.5 239.806c14.826-3.629 28.512-8.535 37.561-12.093 18.964-7.451 36.742-16.409 49.181-24.629 12.438 8.22 30.217 17.172 49.181 24.624 8.876 3.486 22.211 8.271 36.706 11.879a13.679 13.679 0 0 1-1.16 1.766c-1.588 2.041-4.55 4.754-11.91 4.754-.59 0-1.2-.02-1.821-.056-11.029-.636-19.188-1.741-27.082-2.804-11.777-1.593-23.952-3.237-44.397-3.237-20.445 0-32.619 1.644-44.397 3.237-7.894 1.064-16.053 2.168-27.082 2.804a31.62 31.62 0 0 1-1.822.056c-7.365 0-10.327-2.713-11.915-4.759a12.087 12.087 0 0 1-1.043-1.542zm35.204 101.777c19.249 2.122 38.33 3.187 57.055 3.187 12.459 0 24.761-.474 36.85-1.415 28.227-2.204 55.344-7.003 80.949-14.308 1.736 11.473 3.156 23.529 4.261 36.116-27.112 8.841-56.317 14.541-87.008 16.969-28.344 2.245-58.011 1.715-88.167-1.567-38.177-4.153-67.58-11.747-80.472-15.473 1.12-12.724 2.555-24.903 4.321-36.486 16.363 4.177 41.475 9.587 72.211 12.977zM93.272 158.229c16.852-16.154 36.849-28.517 59.686-36.945a131.593 131.593 0 0 0-4.988 11.625c-11.518 5.242-41.063 19.926-70.827 44.804a283.244 283.244 0 0 0-3.695 3.145c6.062-8.215 12.673-15.773 19.824-22.629zm61.432 164.039c-4.957 31.8-7.573 67.772-7.767 106.928-.112 22.796.595 43.897 1.588 61.863-11.971-12.256-25.667-23.243-39.154-34.069-20.129-16.154-40.946-32.864-56.215-53.568-31.841-43.185-30.97-105.034-4.418-150.337C59.767 234.269 75.255 216.409 94.774 200c16.246-13.655 32.645-24.048 45.369-31.189-1.089 11.156-1.43 23.702-1.43 38.676 0 16.19 8.164 25.041 15.009 29.611 5.599 3.741 12.632 6.113 20.974 7.105-8.668 22.287-15.371 48.428-19.992 78.065zm279.714 178.238c-27.28 8.953-56.688 14.719-87.602 17.167-28.345 2.245-58.006 1.715-88.167-1.567-38.783-4.22-68.516-11.986-81.072-15.646-.743-11.243-1.41-24.12-1.822-38.096 15.707 4.291 43.608 10.851 78.95 14.755 19.249 2.122 38.33 3.186 57.055 3.186a472.09 472.09 0 0 0 36.85-1.415c30.694-2.396 60.072-7.857 87.628-16.271-.415 13.899-1.082 26.7-1.82 37.887zm-87.602-50.596c-28.345 2.245-58.006 1.715-88.167-1.568-41.328-4.499-72.379-13.023-83.322-16.312 0-1.019.005-2.036.01-3.064a840.69 840.69 0 0 1 .87-34.243c15.788 4.291 43.491 10.766 78.492 14.628 19.249 2.122 38.325 3.187 57.055 3.187 12.459 0 24.766-.468 36.854-1.415 30.532-2.382 59.762-7.802 87.189-16.144a846.696 846.696 0 0 1 .87 36.995c-27.91 9.39-58.082 15.422-89.851 17.936zm212.028-46.489c-15.264 20.705-36.08 37.414-56.215 53.568-13.487 10.826-27.184 21.813-39.154 34.069.992-17.966 1.7-39.067 1.589-61.863-.193-39.149-2.81-75.128-7.768-106.929-4.616-29.61-11.313-55.73-19.977-78.002 8.551-.957 15.741-3.354 21.447-7.161 6.847-4.57 15.005-13.421 15.005-29.616 0-14.846-.337-27.301-1.4-38.386 12.648 7.13 28.828 17.427 44.85 30.899 19.52 16.409 35.006 34.268 46.03 53.08 26.991 46.035 27.668 106.835-4.407 150.341zM203.072 117.368c5.79-11.012 17.644-16.174 26.476-11.529s11.298 17.336 5.508 28.347c-5.79 11.012-17.644 16.173-26.476 11.529-8.832-4.644-11.298-17.336-5.508-28.347zm86.706 28.956c-2.073-3.943-1.191-8.488 1.971-10.151 3.162-1.663 7.406.187 9.48 4.13 2.074 3.944 1.191 8.488-1.971 10.151-3.162 1.663-7.406-.186-9.48-4.13zm21.455-6.017c2.073-3.943 6.318-5.792 9.48-4.129 3.162 1.663 4.044 6.208 1.97 10.151-2.073 3.943-6.318 5.792-9.48 4.129s-4.044-6.208-1.97-10.151zm65.44-6.123c-5.79-11.012-3.324-23.703 5.508-28.347 8.832-4.644 20.687.518 26.477 11.529 5.79 11.012 3.324 23.703-5.508 28.347-8.833 4.645-20.687-.517-26.477-11.529z"/></svg>